<svg xmlns="http://www.w3.org/2000/svg" width="1300" height="790" viewBox="0 0 1300 790">
<rect width="100%" height="100%" fill="white"/>
<style>text{font-family:Arial,Helvetica,sans-serif;fill:#24292f}.axis{font-size:14px}.value{font-size:14px;font-weight:700}.title{font-size:22px;font-weight:700}.grid{stroke:#d8dee8;stroke-width:1}</style>
<text class="title" x="650.0" y="29" text-anchor="middle">Polygeist raised GPU slowdown versus native MFEM CUDA</text>
<line class="grid" x1="285.00" y1="62" x2="285.00" y2="738"/>
<text class="axis" x="285.00" y="762" text-anchor="middle">0×</text>
<line class="grid" x1="493.72" y1="62" x2="493.72" y2="738"/>
<text class="axis" x="493.72" y="762" text-anchor="middle">50×</text>
<line class="grid" x1="702.44" y1="62" x2="702.44" y2="738"/>
<text class="axis" x="702.44" y="762" text-anchor="middle">100×</text>
<line class="grid" x1="911.17" y1="62" x2="911.17" y2="738"/>
<text class="axis" x="911.17" y="762" text-anchor="middle">150×</text>
<line class="grid" x1="1119.89" y1="62" x2="1119.89" y2="738"/>
<text class="axis" x="1119.89" y="762" text-anchor="middle">200×</text>
<text class="axis" x="273" y="86.75" text-anchor="end">diffusion_apply_3d</text>
<rect x="285" y="68.36" width="895.00" height="27.04" rx="3" fill="#d97706"/>
<text class="value" x="1188.00" y="86.75">214.40×</text>
<text class="axis" x="273" y="126.51" text-anchor="end">convection_apply_3d</text>
<rect x="285" y="108.13" width="779.16" height="27.04" rx="3" fill="#d97706"/>
<text class="value" x="1072.16" y="126.51">186.65×</text>
<text class="axis" x="273" y="166.28" text-anchor="end">interp_grad_3d</text>
<rect x="285" y="147.89" width="657.93" height="27.04" rx="3" fill="#d97706"/>
<text class="value" x="950.93" y="166.28">157.61×</text>
<text class="axis" x="273" y="206.04" text-anchor="end">integrate_grad_3d</text>
<rect x="285" y="187.66" width="625.96" height="27.04" rx="3" fill="#d97706"/>
<text class="value" x="918.96" y="206.04">149.95×</text>
<text class="axis" x="273" y="245.81" text-anchor="end">diffusion_apply_2d</text>
<rect x="285" y="227.42" width="533.54" height="27.04" rx="3" fill="#d97706"/>
<text class="value" x="826.54" y="245.81">127.81×</text>
<text class="axis" x="273" y="285.57" text-anchor="end">convection_apply_2d</text>
<rect x="285" y="267.19" width="484.28" height="27.04" rx="3" fill="#d97706"/>
<text class="value" x="777.28" y="285.57">116.01×</text>
<text class="axis" x="273" y="325.34" text-anchor="end">integrate_grad_2d</text>
<rect x="285" y="306.95" width="452.18" height="27.04" rx="3" fill="#d97706"/>
<text class="value" x="745.18" y="325.34">108.32×</text>
<text class="axis" x="273" y="365.10" text-anchor="end">mass_apply_3d</text>
<rect x="285" y="346.72" width="426.25" height="27.04" rx="3" fill="#d97706"/>
<text class="value" x="719.25" y="365.10">102.11×</text>
<text class="axis" x="273" y="404.87" text-anchor="end">interp_value_3d</text>
<rect x="285" y="386.48" width="356.37" height="27.04" rx="3" fill="#d97706"/>
<text class="value" x="649.37" y="404.87">85.37×</text>
<text class="axis" x="273" y="444.63" text-anchor="end">interp_grad_2d</text>
<rect x="285" y="426.24" width="347.52" height="27.04" rx="3" fill="#d97706"/>
<text class="value" x="640.52" y="444.63">83.25×</text>
<text class="axis" x="273" y="484.40" text-anchor="end">mass_apply_2d</text>
<rect x="285" y="466.01" width="286.87" height="27.04" rx="3" fill="#d97706"/>
<text class="value" x="579.87" y="484.40">68.72×</text>
<text class="axis" x="273" y="524.16" text-anchor="end">divdiv_apply_2d</text>
<rect x="285" y="505.77" width="190.81" height="27.04" rx="3" fill="#d97706"/>
<text class="value" x="483.81" y="524.16">45.71×</text>
<text class="axis" x="273" y="563.93" text-anchor="end">divdiv_apply_3d</text>
<rect x="285" y="545.54" width="182.13" height="27.04" rx="3" fill="#d97706"/>
<text class="value" x="475.13" y="563.93">43.63×</text>
<text class="axis" x="273" y="603.69" text-anchor="end">interp_value_2d</text>
<rect x="285" y="585.30" width="172.70" height="27.04" rx="3" fill="#d97706"/>
<text class="value" x="465.70" y="603.69">41.37×</text>
<text class="axis" x="273" y="643.46" text-anchor="end">curlcurl_apply_2d</text>
<rect x="285" y="625.07" width="141.01" height="27.04" rx="3" fill="#d97706"/>
<text class="value" x="434.01" y="643.46">33.78×</text>
<text class="axis" x="273" y="683.22" text-anchor="end">integrate_value_2d</text>
<rect x="285" y="664.83" width="92.55" height="27.04" rx="3" fill="#d97706"/>
<text class="value" x="385.55" y="683.22">22.17×</text>
<text class="axis" x="273" y="722.98" text-anchor="end">curlcurl_apply_3d</text>
<rect x="285" y="704.60" width="36.65" height="27.04" rx="3" fill="#d97706"/>
<text class="value" x="329.65" y="722.98">8.78×</text>
</svg>